<svg width="358" height="253" viewBox="0 0 358 253" fill="none" xmlns="http://www.w3.org/2000/svg">
<g clip-path="url(#clip0_79_1702)">
<path d="M178.516 116.48C184.817 116.48 189.926 111.353 189.926 105.03C189.926 98.7062 184.817 93.58 178.516 93.58C172.214 93.58 167.106 98.7062 167.106 105.03C167.106 111.353 172.214 116.48 178.516 116.48Z" fill="#64CCC5"/>
<path d="M53.8863 15.0564V124.102C53.8895 126.751 54.9396 129.291 56.8062 131.164C58.6729 133.038 61.2037 134.091 63.8435 134.095H348.043C350.683 134.091 353.213 133.038 355.08 131.164C356.947 129.291 357.997 126.751 358 124.102V15.0564C357.997 12.4073 356.947 9.86757 355.08 7.99437C353.213 6.12117 350.683 5.0674 348.043 5.06421H63.8435C61.2037 5.0674 58.6729 6.12116 56.8062 7.99436C54.9396 9.86756 53.8895 12.4073 53.8863 15.0564ZM54.764 15.0564C54.764 12.6399 55.7206 10.3223 57.4233 8.61363C59.1261 6.90491 61.4355 5.94496 63.8435 5.94496H288.806C306.925 5.94496 324.301 13.1678 337.113 26.0245C349.925 38.8812 357.122 56.3187 357.122 74.5008V124.102C357.122 126.519 356.166 128.836 354.463 130.545C352.76 132.254 350.451 133.214 348.043 133.214H63.8435C61.4355 133.214 59.1261 132.254 57.4233 130.545C55.7206 128.836 54.764 126.519 54.764 124.102V15.0564Z" fill="#3F3D56"/>
<path d="M57.1633 244.796L63.5295 244.796L66.5579 220.154L57.162 220.155L57.1633 244.796Z" fill="#FFB6B6"/>
<path d="M56.9391 251.461L76.5158 251.46V251.212C76.5157 249.184 75.7129 247.239 74.2839 245.805C72.8549 244.371 70.9169 243.566 68.896 243.565H68.8955L65.3196 240.843L58.6477 243.566L56.9388 243.566L56.9391 251.461Z" fill="#2F2E41"/>
<path d="M29.3928 244.796L35.759 244.796L38.7874 220.154L29.3915 220.155L29.3928 244.796Z" fill="#FFB6B6"/>
<path d="M29.1688 251.461L48.7456 251.46V251.212C48.7454 249.184 47.9426 247.239 46.5136 245.805C45.0847 244.371 43.1466 243.566 41.1258 243.565H41.1253L37.5494 240.843L30.8775 243.566L29.1685 243.566L29.1688 251.461Z" fill="#2F2E41"/>
<path d="M73.0143 110.531C73.0143 110.531 79.1394 129.41 78.0088 131.894C76.8783 134.379 74.9493 132.443 76.8783 134.379C78.8072 136.315 80.491 134.257 78.6846 137.544C76.8782 140.831 74.1416 167.892 72.938 169.202C71.7344 170.512 70.0796 170.547 71.55 171.82C73.0204 173.093 74.9493 170.512 73.0204 173.093C71.0915 175.674 65.973 235.213 65.973 235.213H55.9739C55.9739 235.213 53.4836 232.333 54.8933 230.458C56.303 228.583 54.7695 227.861 54.8933 226.609C55.017 225.357 54.5482 222.658 54.4611 221.427C54.3741 220.195 52.6842 190.857 56.744 173.91L49.341 141.64L40.3735 180.642C40.3735 180.642 44.4985 213.357 40.3735 223.874C40.3735 223.874 43.6992 226.653 42.2243 228.263C40.7493 229.874 39.4633 228.583 40.7493 229.874C42.0353 231.164 38.8204 235.681 38.8204 235.681L27.8897 235.036L21.703 173.91C21.703 173.91 20.6601 167.535 21.703 166.443C22.7459 165.35 22.7459 169.222 22.7459 165.35V160.188C22.7459 160.188 23.35 128.44 23.4306 126.57C23.5111 124.701 31.2269 111.151 31.2269 111.151L73.0143 110.531Z" fill="#2F2E41"/>
<path d="M72.9231 45.328V82.553C71.7256 86.1574 71.1079 89.9303 71.0931 93.7297C71.1326 100.058 72.5193 107.351 72.5149 110.539C72.5334 110.962 72.4875 111.385 72.3789 111.794C66.2396 129.651 33.7525 113.423 30.7991 111.904C30.6587 111.834 30.5841 111.794 30.5841 111.794L31.2248 91.7921L31.1151 86.0408L30.3559 46.5874L31.0361 46.0414L36.9955 41.2721L37.5792 40.8053L39.3696 43.4255L55.3301 42.3246L61.4212 40.6335L63.3213 41.4086L71.8874 44.9052L72.9231 45.328Z" fill="#64CCC5"/>
<path d="M128.548 74.5802L117.363 70.8693L114.359 76.9853L126.323 80.4865C126.714 81.1093 127.271 81.6104 127.93 81.9333C128.589 82.2562 129.325 82.3881 130.055 82.3143C130.785 82.2405 131.48 81.9638 132.062 81.5154C132.644 81.067 133.089 80.4646 133.349 79.7759C133.608 79.0873 133.671 78.3397 133.53 77.6172C133.389 76.8947 133.05 76.2259 132.551 75.6861C132.053 75.1463 131.414 74.7568 130.706 74.5614C129.999 74.3661 129.251 74.3725 128.548 74.5802Z" fill="#FFB6B6"/>
<path d="M62.0887 41.707L62.0424 41.8928C61.1684 45.4016 60.0525 55.4236 62.4436 58.1297C65.5142 61.6091 90.3172 72.231 95.2445 71.3656C99.0661 70.6944 98.2793 70.9198 100.108 72.8287C101.936 74.7376 98.9013 75.1835 102.98 75.5175C107.059 75.8515 107.14 74.2842 108.013 76.0223C108.887 77.7605 108.11 78.8079 110.886 78.7112C113.661 78.6144 114.357 79.1344 115.312 79.3052C116.267 79.476 122.263 82.328 122.263 82.328C122.263 82.328 124.668 75.442 127.695 72.8197C127.695 72.8197 120.752 71.9733 120.227 70.4952C119.701 69.017 120.13 67.7096 118.309 67.9772C116.488 68.2447 115.541 70.2503 115.793 67.7247C116.044 65.1991 102.927 60.2825 102.927 60.2825C95.0113 52.4613 78.7475 47.0277 62.0887 41.707Z" fill="#64CCC5"/>
<path d="M26.6024 119.452L26.095 107.642L19.3313 106.991L20.3104 119.459C19.8687 120.047 19.5991 120.747 19.5319 121.48C19.4648 122.213 19.6027 122.95 19.9303 123.609C20.2578 124.268 20.762 124.822 21.3861 125.209C22.0102 125.596 22.7295 125.8 23.4631 125.799C24.1967 125.799 24.9155 125.592 25.5388 125.204C26.1621 124.816 26.6651 124.261 26.9913 123.601C27.3174 122.942 27.4538 122.204 27.3851 121.471C27.3164 120.738 27.0453 120.039 26.6024 119.452Z" fill="#FFB6B6"/>
<path d="M33.6726 45.438L33.4831 45.4604C31.7201 45.6691 30.0343 46.3059 28.5718 47.3157C27.1092 48.3254 25.914 49.6777 25.0895 51.2554C22.936 55.3701 16.1231 83.2389 17.7913 87.0634C19.347 90.63 19.2826 89.753 18.1521 92.1454C17.0216 94.5378 15.5303 91.8482 16.6649 95.7937C17.7996 99.7392 19.2888 99.2599 17.979 100.696C16.6691 102.132 15.4176 101.774 16.4918 104.344C17.5659 106.914 17.3281 107.752 17.5075 108.708C17.6869 109.665 17.155 116.302 17.155 116.302C17.155 116.302 24.4239 116.118 27.9405 118.029C27.9405 118.029 26.2677 111.214 27.4587 110.196C28.6497 109.179 30.0201 109.118 29.1253 107.505C28.2305 105.891 26.0258 105.713 28.4683 105.054C30.9107 104.394 30.8419 90.3433 30.8419 90.3433L33.6726 45.438Z" fill="#64CCC5"/>
<path d="M51.0997 30.3859C50.8145 30.4519 50.5292 30.5092 50.244 30.5532C49.3726 30.6968 48.488 30.7426 47.6066 30.6897C45.3105 30.566 43.0935 29.8065 41.2013 28.4955C39.3091 27.1844 37.8158 25.373 36.887 23.2623C35.9581 21.1515 35.63 18.8237 35.939 16.5372C36.248 14.2507 37.1821 12.0948 38.6377 10.3085C40.0932 8.52224 42.0134 7.17546 44.1851 6.41751C46.3569 5.65957 48.6955 5.52008 50.9414 6.01453C53.1874 6.50898 55.253 7.61803 56.9092 9.2187C58.5653 10.8194 59.7473 12.8491 60.3241 15.0828C60.3504 15.1841 60.3767 15.2809 60.3987 15.3822C61.1474 18.6092 60.5885 22.0025 58.8447 24.8161C57.1009 27.6296 54.3151 29.633 51.0997 30.3859Z" fill="#FFB6B6"/>
<path d="M39.6101 28.9118C37.8786 27.552 37.7105 24.96 36.233 23.3262C33.7626 20.5944 32.602 17.6554 33.896 14.4185C35.0406 11.5556 34.7974 8.03636 37.2625 6.19353C36.0518 5.7537 35.7668 4.84033 36.8351 4.82346C37.5555 4.81209 40.2411 6.19378 38.9489 4.47257C37.6566 2.75135 40.1028 3.43076 39.941 2.72621C39.7792 2.02166 38.7417 1.63143 38.2841 2.18991C39.745 0.472177 42.9352 0.838396 43.9718 2.84282C45.4279 0.652949 46.9735 -0.853886 49.2016 0.535801C51.3899 1.90068 51.3613 3.58787 53.7145 3.18239C54.8208 2.99179 54.9254 5.08922 55.6811 5.92206C56.4369 6.7549 57.5416 7.39947 58.6446 7.1903C59.7475 6.98113 60.5909 5.60178 59.9729 4.66148L62.5725 10.6128L63.6201 9.32323C65.2849 10.412 64.7381 13.2529 63.0624 14.3245C61.3867 15.3961 58.1886 12.9193 57.2792 14.6922C55.8457 17.4869 52.4828 16.0757 50.1734 14.1006C47.3728 11.7054 43.9924 18.9881 45.3415 22.4233C43.9417 21.0439 41.3523 22.1886 40.6271 24.0179C39.902 25.8471 40.4337 27.9081 40.9713 29.8014L39.6101 28.9118Z" fill="#2F2E41"/>
<path d="M212.581 70.0318H199.408C199.066 70.0314 198.738 69.895 198.497 69.6524C198.255 69.4099 198.119 69.081 198.119 68.738V55.6802C198.119 55.3372 198.255 55.0084 198.497 54.7658C198.738 54.5233 199.066 54.3869 199.408 54.3865H212.581C212.923 54.3869 213.25 54.5233 213.492 54.7658C213.734 55.0084 213.87 55.3372 213.87 55.6802V68.738C213.87 69.081 213.734 69.4099 213.492 69.6524C213.25 69.895 212.923 70.0314 212.581 70.0318Z" fill="#F2F2F2"/>
<path d="M214.774 71.1322H201.601C201.259 71.1319 200.931 70.9954 200.69 70.7529C200.448 70.5104 200.312 70.1815 200.312 69.8385V56.7807C200.312 56.4377 200.448 56.1088 200.69 55.8663C200.931 55.6237 201.259 55.4873 201.601 55.4869H214.774C215.116 55.4873 215.443 55.6237 215.685 55.8663C215.927 56.1088 216.063 56.4377 216.063 56.7807V69.8385C216.063 70.1815 215.927 70.5103 215.685 70.7529C215.443 70.9954 215.116 71.1319 214.774 71.1322Z" fill="#F2F2F2"/>
<path d="M199.684 54.772C199.371 54.772 199.07 54.8968 198.849 55.1191C198.627 55.3414 198.503 55.6429 198.503 55.9573V68.461C198.503 68.7754 198.627 69.0769 198.849 69.2992C199.07 69.5215 199.371 69.6463 199.684 69.6463H207.739C209.263 69.6463 210.725 69.0387 211.803 67.9572C212.88 66.8756 213.486 65.4087 213.486 63.8792V55.9573C213.486 55.6429 213.361 55.3414 213.14 55.1191C212.918 54.8968 212.618 54.772 212.305 54.772H199.684Z" fill="white"/>
<path d="M209.522 58.5666H202.439C202.374 58.5666 202.311 58.5407 202.265 58.4946C202.219 58.4485 202.194 58.3859 202.194 58.3207C202.194 58.2554 202.219 58.1929 202.265 58.1467C202.311 58.1006 202.374 58.0747 202.439 58.0747H209.522C209.587 58.0747 209.65 58.1006 209.696 58.1467C209.742 58.1929 209.767 58.2554 209.767 58.3207C209.767 58.3859 209.742 58.4485 209.696 58.4946C209.65 58.5407 209.587 58.5666 209.522 58.5666Z" fill="#F2F2F2"/>
<path d="M209.522 63.8114H202.439C202.374 63.8114 202.311 63.7855 202.265 63.7393C202.219 63.6932 202.194 63.6306 202.194 63.5654C202.194 63.5002 202.219 63.4376 202.265 63.3915C202.311 63.3454 202.374 63.3195 202.439 63.3195H209.522C209.587 63.3195 209.65 63.3454 209.696 63.3915C209.742 63.4376 209.767 63.5002 209.767 63.5654C209.767 63.6306 209.742 63.6932 209.696 63.7393C209.65 63.7855 209.587 63.8114 209.522 63.8114Z" fill="#F2F2F2"/>
<path d="M212.399 61.1908H199.562C199.497 61.1908 199.435 61.1648 199.389 61.1187C199.343 61.0726 199.317 61.01 199.317 60.9448C199.317 60.8796 199.343 60.817 199.389 60.7709C199.435 60.7248 199.497 60.6989 199.562 60.6989H212.399C212.464 60.6989 212.526 60.7248 212.572 60.7709C212.618 60.817 212.644 60.8796 212.644 60.9448C212.644 61.01 212.618 61.0726 212.572 61.1187C212.526 61.1648 212.464 61.1908 212.399 61.1908Z" fill="#F2F2F2"/>
<path d="M212.53 65.9438H207.893C207.828 65.9438 207.765 65.9179 207.719 65.8718C207.673 65.8256 207.648 65.7631 207.648 65.6979C207.648 65.6326 207.673 65.5701 207.719 65.524C207.765 65.4778 207.828 65.4519 207.893 65.4519H212.53C212.595 65.4519 212.657 65.4778 212.703 65.524C212.749 65.5701 212.775 65.6326 212.775 65.6979C212.775 65.7631 212.749 65.8256 212.703 65.8718C212.657 65.9179 212.595 65.9438 212.53 65.9438Z" fill="#F2F2F2"/>
<path d="M172.853 78.2059L172.682 78.1211C162.686 73.162 151.872 73.1665 139.624 78.1347L139.295 77.318C151.719 72.2793 162.714 72.2554 172.899 77.2468C187.233 71.7729 196.448 62.4955 200.29 49.6687L201.13 49.9224C197.189 63.0782 187.736 72.5715 173.032 78.1384L172.853 78.2059Z" fill="#F2F2F2"/>
<path d="M214.552 78.2059L214.38 78.125C204.556 73.4998 193.736 73.5041 181.302 78.1392L180.996 77.3135C193.588 72.6193 204.577 72.5965 214.58 77.2469C230.629 70.8119 239.842 61.5507 241.967 49.7175L242.831 49.8736C240.641 62.0694 231.186 71.5781 214.728 78.1356L214.552 78.2059Z" fill="#F2F2F2"/>
<path d="M247.414 77.7374L247.306 77.6905C239.211 74.1985 228.679 74.2058 214.164 77.7142L213.959 76.8579C228.603 73.3186 239.28 73.31 247.543 76.8347C263.947 74.8218 272.889 65.8148 274.876 49.3024L275.748 49.4082C273.7 66.4216 264.47 75.6837 247.531 77.7232L247.414 77.7374Z" fill="#F2F2F2"/>
<path d="M204.407 51.7443C206.346 51.7443 207.918 50.167 207.918 48.2213C207.918 46.2755 206.346 44.6982 204.407 44.6982C202.468 44.6982 200.897 46.2755 200.897 48.2213C200.897 50.167 202.468 51.7443 204.407 51.7443Z" fill="#64CCC5"/>
<path d="M243.903 51.7443C245.841 51.7443 247.413 50.167 247.413 48.2213C247.413 46.2755 245.841 44.6982 243.903 44.6982C241.964 44.6982 240.392 46.2755 240.392 48.2213C240.392 50.167 241.964 51.7443 243.903 51.7443Z" fill="#64CCC5"/>
<path d="M275.499 51.3038C277.438 51.3038 279.009 49.7265 279.009 47.7808C279.009 45.8351 277.438 44.2578 275.499 44.2578C273.56 44.2578 271.988 45.8351 271.988 47.7808C271.988 49.7265 273.56 51.3038 275.499 51.3038Z" fill="#64CCC5"/>
<path d="M177.635 105.041H140.732C139.774 105.04 138.856 104.658 138.179 103.978C137.502 103.299 137.121 102.378 137.12 101.417V64.8366C137.121 63.8757 137.502 62.9545 138.179 62.275C138.856 61.5955 139.774 61.2134 140.732 61.2123H177.635C178.592 61.2134 179.51 61.5955 180.187 62.275C180.864 62.9545 181.245 63.8757 181.246 64.8366V101.417C181.245 102.378 180.864 103.299 180.187 103.978C179.51 104.658 178.592 105.04 177.635 105.041Z" fill="#E6E6E6"/>
<path d="M171.491 101.959H134.588C133.631 101.957 132.713 101.575 132.036 100.896C131.359 100.216 130.978 99.2951 130.977 98.3342V61.7539C130.978 60.793 131.359 59.8718 132.036 59.1924C132.713 58.5129 133.631 58.1307 134.588 58.1296H171.491C172.448 58.1307 173.366 58.5129 174.043 59.1924C174.721 59.8718 175.101 60.793 175.102 61.7539V98.3342C175.101 99.2951 174.721 100.216 174.043 100.896C173.366 101.575 172.448 101.957 171.491 101.959Z" fill="#E6E6E6"/>
<path d="M141.461 59.2095C138.966 59.2095 136.573 60.2041 134.808 61.9747C133.044 63.7452 132.053 66.1465 132.053 68.6504V97.5581C132.053 97.9941 132.138 98.4259 132.305 98.8288C132.471 99.2317 132.715 99.5977 133.022 99.9061C133.329 100.214 133.694 100.459 134.095 100.626C134.497 100.793 134.927 100.879 135.362 100.879H157.927C160.041 100.879 162.134 100.461 164.088 99.6488C166.041 98.8369 167.816 97.6468 169.311 96.1466C170.806 94.6463 171.992 92.8653 172.801 90.9051C173.61 88.9449 174.026 86.8441 174.026 84.7224V62.53C174.026 61.6493 173.678 60.8048 173.057 60.182C172.437 59.5593 171.595 59.2095 170.717 59.2095H141.461Z" fill="white"/>
<path d="M162.923 69.84H143.079C142.897 69.84 142.722 69.7674 142.593 69.6382C142.464 69.509 142.392 69.3338 142.392 69.151C142.392 68.9683 142.464 68.7931 142.593 68.6638C142.722 68.5346 142.897 68.462 143.079 68.462H162.923C163.105 68.462 163.28 68.5346 163.409 68.6638C163.537 68.7931 163.61 68.9683 163.61 69.151C163.61 69.3338 163.537 69.509 163.409 69.6382C163.28 69.7674 163.105 69.84 162.923 69.84Z" fill="#E6E6E6"/>
<path d="M162.923 84.5325H143.079C142.988 84.5327 142.899 84.5151 142.815 84.4806C142.732 84.4461 142.656 84.3953 142.592 84.3313C142.528 84.2673 142.477 84.1913 142.443 84.1076C142.408 84.0239 142.39 83.9342 142.39 83.8435C142.39 83.7529 142.408 83.6632 142.443 83.5795C142.477 83.4958 142.528 83.4197 142.592 83.3557C142.656 83.2917 142.732 83.241 142.815 83.2065C142.899 83.172 142.988 83.1543 143.079 83.1545H162.923C163.105 83.155 163.279 83.2278 163.407 83.357C163.536 83.4861 163.608 83.6611 163.608 83.8435C163.608 84.026 163.536 84.201 163.407 84.3301C163.279 84.4593 163.105 84.5321 162.923 84.5325Z" fill="#E6E6E6"/>
<path d="M170.982 77.1911H135.02C134.838 77.1911 134.664 77.1185 134.535 76.9893C134.406 76.8601 134.334 76.6848 134.334 76.5021C134.334 76.3194 134.406 76.1441 134.535 76.0149C134.664 75.8857 134.838 75.8131 135.02 75.8131H170.982C171.164 75.8131 171.338 75.8857 171.467 76.0149C171.596 76.1441 171.668 76.3194 171.668 76.5021C171.668 76.6848 171.596 76.8601 171.467 76.9893C171.338 77.1185 171.164 77.1911 170.982 77.1911Z" fill="#E6E6E6"/>
<path d="M171.349 90.5065H158.358C158.267 90.5065 158.178 90.4887 158.095 90.4541C158.012 90.4195 157.936 90.3687 157.872 90.3047C157.808 90.2407 157.758 90.1648 157.723 90.0812C157.689 89.9976 157.671 89.908 157.671 89.8175C157.671 89.727 157.689 89.6375 157.723 89.5539C157.758 89.4703 157.808 89.3943 157.872 89.3303C157.936 89.2664 158.012 89.2156 158.095 89.181C158.178 89.1464 158.267 89.1285 158.358 89.1285H171.349C171.531 89.1285 171.705 89.2011 171.834 89.3303C171.963 89.4596 172.035 89.6348 172.035 89.8175C172.035 90.0003 171.963 90.1755 171.834 90.3047C171.705 90.4339 171.531 90.5065 171.349 90.5065Z" fill="#E6E6E6"/>
<path d="M259.097 68.2703H245.925C245.583 68.2699 245.255 68.1335 245.013 67.8909C244.772 67.6484 244.636 67.3196 244.635 66.9766V53.9187C244.636 53.5757 244.772 53.2469 245.013 53.0043C245.255 52.7618 245.583 52.6254 245.925 52.625H259.097C259.439 52.6254 259.767 52.7618 260.009 53.0043C260.25 53.2469 260.386 53.5757 260.387 53.9187V66.9766C260.386 67.3196 260.25 67.6484 260.009 67.8909C259.767 68.1335 259.439 68.2699 259.097 68.2703Z" fill="#F2F2F2"/>
<path d="M261.291 69.3707H248.118C247.776 69.3703 247.448 69.2338 247.206 68.9913C246.965 68.7488 246.829 68.4199 246.828 68.0769V55.0191C246.829 54.6761 246.965 54.3472 247.206 54.1047C247.448 53.8622 247.776 53.7257 248.118 53.7253H261.29C261.632 53.7257 261.96 53.8622 262.202 54.1047C262.443 54.3472 262.579 54.6761 262.58 55.0191V68.0769C262.579 68.4199 262.443 68.7488 262.202 68.9913C261.96 69.2338 261.632 69.3703 261.291 69.3707Z" fill="#F2F2F2"/>
<path d="M246.201 53.0105C245.887 53.0105 245.587 53.1354 245.365 53.3577C245.144 53.5799 245.019 53.8814 245.019 54.1958V66.6996C245.019 67.0139 245.144 67.3154 245.365 67.5377C245.587 67.76 245.887 67.8849 246.201 67.8849H254.255C255.78 67.8849 257.241 67.2773 258.319 66.1957C259.397 65.1142 260.002 63.6473 260.002 62.1177V54.1958C260.002 53.8814 259.878 53.5799 259.656 53.3577C259.435 53.1354 259.135 53.0105 258.821 53.0105H246.201Z" fill="white"/>
<path d="M256.039 56.8051H248.955C248.89 56.8051 248.828 56.7792 248.782 56.7331C248.736 56.687 248.71 56.6244 248.71 56.5592C248.71 56.494 248.736 56.4314 248.782 56.3853C248.828 56.3391 248.89 56.3132 248.955 56.3132H256.039C256.104 56.3132 256.166 56.3391 256.212 56.3853C256.258 56.4314 256.284 56.494 256.284 56.5592C256.284 56.6244 256.258 56.687 256.212 56.7331C256.166 56.7792 256.104 56.8051 256.039 56.8051Z" fill="#F2F2F2"/>
<path d="M256.039 62.0499H248.955C248.89 62.0499 248.828 62.024 248.782 61.9779C248.736 61.9317 248.71 61.8692 248.71 61.8039C248.71 61.7387 248.736 61.6761 248.782 61.63C248.828 61.5839 248.89 61.558 248.955 61.558H256.039C256.104 61.558 256.166 61.5839 256.212 61.63C256.258 61.6761 256.284 61.7387 256.284 61.8039C256.284 61.8692 256.258 61.9317 256.212 61.9779C256.166 62.024 256.104 62.0499 256.039 62.0499Z" fill="#F2F2F2"/>
<path d="M258.916 59.4292H246.079C246.014 59.4292 245.951 59.4032 245.905 59.3571C245.859 59.311 245.834 59.2484 245.834 59.1832C245.834 59.118 245.859 59.0554 245.905 59.0093C245.951 58.9632 246.014 58.9373 246.079 58.9373H258.916C258.981 58.9373 259.043 58.9632 259.089 59.0093C259.135 59.0554 259.161 59.118 259.161 59.1832C259.161 59.2484 259.135 59.311 259.089 59.3571C259.043 59.4032 258.981 59.4292 258.916 59.4292Z" fill="#F2F2F2"/>
<path d="M259.047 64.1823H254.409C254.344 64.1823 254.282 64.1564 254.236 64.1103C254.19 64.0642 254.164 64.0016 254.164 63.9364C254.164 63.8712 254.19 63.8086 254.236 63.7625C254.282 63.7164 254.344 63.6904 254.409 63.6904H259.047C259.112 63.6904 259.174 63.7164 259.22 63.7625C259.266 63.8086 259.292 63.8712 259.292 63.9364C259.292 64.0016 259.266 64.0642 259.22 64.1103C259.174 64.1564 259.112 64.1823 259.047 64.1823Z" fill="#F2F2F2"/>
<path d="M108.09 245.367C107.886 245.376 107.684 245.323 107.511 245.213C107.339 245.103 107.204 244.943 107.125 244.754C107.047 244.565 107.028 244.356 107.071 244.156C107.114 243.956 107.218 243.774 107.368 243.635L107.436 243.363C107.427 243.341 107.418 243.319 107.409 243.297C107.204 242.81 106.859 242.395 106.419 242.104C105.98 241.812 105.464 241.658 104.937 241.66C104.409 241.662 103.895 241.82 103.457 242.115C103.019 242.409 102.678 242.827 102.476 243.316C101.669 245.266 100.642 247.219 100.389 249.281C100.278 250.192 100.325 251.116 100.528 252.011C98.6329 247.863 97.6489 243.354 97.6425 238.791C97.6421 237.646 97.7056 236.502 97.8325 235.364C97.9373 234.431 98.0828 233.504 98.269 232.585C99.2847 227.595 101.465 222.918 104.632 218.938C106.165 218.098 107.404 216.808 108.184 215.24C108.466 214.676 108.665 214.075 108.776 213.454C108.603 213.477 108.124 210.834 108.255 210.672C108.014 210.305 107.582 210.123 107.319 209.765C106.01 207.984 104.207 208.295 103.266 210.715C101.255 211.733 101.236 213.422 102.469 215.047C103.254 216.08 103.362 217.478 104.051 218.585C103.98 218.676 103.907 218.764 103.836 218.855C102.54 220.527 101.411 222.321 100.465 224.214C100.695 222.094 100.42 219.949 99.6635 217.956C98.8963 216.099 97.4584 214.535 96.1921 212.929C95.8572 212.498 95.4023 212.176 94.8851 212.004C94.3679 211.832 93.8115 211.818 93.2862 211.963C92.7609 212.109 92.2904 212.407 91.934 212.821C91.5777 213.234 91.3515 213.745 91.2841 214.287C91.2815 214.311 91.279 214.335 91.2765 214.358C91.4646 214.465 91.6487 214.578 91.8289 214.697C92.0552 214.849 92.2305 215.066 92.332 215.319C92.4334 215.573 92.4562 215.851 92.3973 216.118C92.3384 216.384 92.2006 216.627 92.002 216.814C91.8034 217 91.5532 217.123 91.2843 217.164L91.2567 217.168C91.3237 217.849 91.4421 218.523 91.611 219.185C89.9865 225.489 93.4937 227.786 98.5014 227.889C98.6119 227.946 98.7197 228.003 98.8302 228.057C97.8793 230.761 97.2829 233.577 97.0559 236.436C96.9273 238.122 96.9349 239.816 97.0785 241.502L97.07 241.442C96.7072 239.568 95.711 237.877 94.2498 236.655C92.0795 234.866 89.0132 234.207 86.6719 232.769C86.423 232.609 86.1337 232.523 85.838 232.522C85.5423 232.522 85.2525 232.606 85.0029 232.765C84.7533 232.924 84.5543 233.151 84.4292 233.42C84.3042 233.689 84.2584 233.988 84.2972 234.283L84.3068 234.345C84.6558 234.488 84.9957 234.652 85.3243 234.837C85.5124 234.944 85.6965 235.057 85.8767 235.176C86.103 235.328 86.2783 235.545 86.3798 235.798C86.4812 236.052 86.5039 236.33 86.4451 236.597C86.3862 236.863 86.2484 237.106 86.0498 237.293C85.8512 237.48 85.601 237.602 85.332 237.643L85.3045 237.648C85.2846 237.65 85.2676 237.653 85.2478 237.656C85.8442 239.085 86.6812 240.4 87.7222 241.544C88.738 247.048 93.1006 247.57 97.7673 245.967H97.7701C98.2821 248.2 99.024 250.373 99.9838 252.452H107.892C107.92 252.364 107.946 252.273 107.971 252.185C107.239 252.231 106.504 252.187 105.783 252.054C106.37 251.332 106.956 250.604 107.543 249.881C107.556 249.868 107.568 249.853 107.58 249.838C107.878 249.469 108.178 249.102 108.476 248.732L108.476 248.732C108.492 247.598 108.362 246.467 108.09 245.367Z" fill="#F2F2F2"/>
<path d="M2.3126e-06 252.476C-0.000202219 252.545 0.013162 252.613 0.0393353 252.677C0.0655085 252.74 0.10397 252.798 0.152506 252.847C0.201043 252.896 0.258698 252.934 0.322152 252.961C0.385606 252.987 0.453607 253 0.522246 253H111.675C111.814 253 111.946 252.945 112.044 252.847C112.142 252.748 112.197 252.615 112.197 252.476C112.197 252.337 112.142 252.204 112.044 252.105C111.946 252.007 111.814 251.952 111.675 251.952H0.522246C0.453608 251.952 0.385605 251.965 0.322152 251.991C0.258699 252.018 0.201049 252.056 0.152513 252.105C0.103977 252.154 0.0655161 252.211 0.039342 252.275C0.0131679 252.339 -0.000199889 252.407 2.3126e-06 252.476Z" fill="#CCCCCC"/>
<path d="M47.6066 30.6899L50.244 30.5533C49.3726 30.697 48.488 30.7427 47.6066 30.6899Z" fill="#F2F2F2"/>
<path d="M63.3215 41.4086L62.887 41.9635L61.7197 43.4519L51.6396 56.3153L36.9957 41.2721L37.5793 40.8053L40.6863 34.1776L56.6468 33.0767L61.4213 40.6335L63.3215 41.4086Z" fill="#3F3D56"/>
</g>
<defs>
<clipPath id="clip0_79_1702">
<rect width="358" height="253" fill="white"/>
</clipPath>
</defs>
</svg>
