<svg width="126" height="34" viewBox="0 0 126 34" fill="none" xmlns="http://www.w3.org/2000/svg">
<path d="M7.224 26.304C6.104 26.304 4.97867 26.2133 3.848 26.032C2.728 25.8613 1.672 25.6107 0.68 25.28V22.368C1.704 22.7093 2.792 22.9707 3.944 23.152C5.10667 23.3333 6.20533 23.424 7.24 23.424C9.18133 23.424 10.6107 23.0987 11.528 22.448C12.4453 21.7973 12.904 20.8373 12.904 19.568C12.904 18.8533 12.7547 18.2667 12.456 17.808C12.168 17.3387 11.6933 16.944 11.032 16.624C10.3707 16.304 9.46933 16.016 8.328 15.76L6.792 15.408C4.552 14.9173 2.89867 14.1387 1.832 13.072C0.765333 12.0053 0.232 10.592 0.232 8.832C0.232 7.40267 0.578667 6.18133 1.272 5.168C1.96533 4.15467 3.00533 3.376 4.392 2.832C5.78933 2.288 7.50667 2.016 9.544 2.016C10.5787 2.016 11.5867 2.08533 12.568 2.224C13.56 2.352 14.472 2.53867 15.304 2.784V5.696C13.576 5.16267 11.6933 4.896 9.656 4.896C5.72 4.896 3.752 6.14933 3.752 8.656C3.752 9.34933 3.88 9.93067 4.136 10.4C4.40267 10.8587 4.83467 11.248 5.432 11.568C6.04 11.888 6.86667 12.1653 7.912 12.4L9.432 12.752C11.8747 13.2853 13.6507 14.0853 14.76 15.152C15.8693 16.208 16.424 17.616 16.424 19.376C16.424 20.8267 16.0613 22.0747 15.336 23.12C14.6107 24.1547 13.56 24.944 12.184 25.488C10.808 26.032 9.15467 26.304 7.224 26.304ZM34.8618 18.352H23.0858C23.1391 19.6213 23.3844 20.6453 23.8218 21.424C24.2698 22.192 24.9364 22.7573 25.8218 23.12C26.7071 23.472 27.8538 23.648 29.2618 23.648C30.6911 23.648 32.2484 23.4187 33.9338 22.96V25.616C32.1738 26.0853 30.4618 26.32 28.7978 26.32C25.7151 26.32 23.4111 25.5947 21.8858 24.144C20.3711 22.6827 19.6138 20.4 19.6138 17.296C19.6138 15.3547 19.9178 13.7173 20.5258 12.384C21.1444 11.04 22.0351 10.0267 23.1978 9.344C24.3711 8.66133 25.7791 8.32 27.4218 8.32C29.8324 8.32 31.6724 9.09333 32.9418 10.64C34.2218 12.176 34.8618 14.4267 34.8618 17.392V18.352ZM27.3898 10.64C26.0031 10.64 24.9471 11.0827 24.2218 11.968C23.4964 12.8533 23.1124 14.2667 23.0698 16.208H31.5978C31.5551 14.2667 31.1818 12.8533 30.4778 11.968C29.7844 11.0827 28.7551 10.64 27.3898 10.64ZM44.288 8.32C46.016 8.32 47.424 8.53333 48.512 8.96C49.6107 9.38667 50.432 10.0907 50.976 11.072C51.52 12.0533 51.792 13.3813 51.792 15.056V26H48.912L48.656 24.112H48.464C47.8773 24.8053 47.12 25.344 46.192 25.728C45.264 26.1013 44.2667 26.288 43.2 26.288C42.0053 26.288 40.9813 26.0907 40.128 25.696C39.2747 25.3013 38.624 24.7413 38.176 24.016C37.728 23.28 37.504 22.4213 37.504 21.44C37.504 19.8827 38.0533 18.6773 39.152 17.824C40.2613 16.96 42.0213 16.4213 44.432 16.208L48.4 15.808V14.864C48.4 13.872 48.2347 13.0987 47.904 12.544C47.584 11.9787 47.088 11.584 46.416 11.36C45.7547 11.1253 44.8747 11.008 43.776 11.008C43.008 11.008 42.1813 11.072 41.296 11.2C40.4107 11.328 39.5627 11.5253 38.752 11.792V9.12C39.552 8.864 40.448 8.66667 41.44 8.528C42.432 8.38933 43.3813 8.32 44.288 8.32ZM44.16 23.808C44.9493 23.808 45.7067 23.6587 46.432 23.36C47.168 23.0613 47.824 22.6133 48.4 22.016V17.92L44.704 18.288C43.3813 18.4267 42.4267 18.7307 41.84 19.2C41.2533 19.6587 40.96 20.3093 40.96 21.152C40.96 22.0053 41.2267 22.6613 41.76 23.12C42.2933 23.5787 43.0933 23.808 44.16 23.808ZM64.7353 23.424C65.3646 23.424 66.1006 23.3333 66.9433 23.152V25.952C65.9726 26.1867 64.9539 26.304 63.8873 26.304C61.8499 26.304 60.2926 25.7973 59.2153 24.784C58.1486 23.7707 57.6153 22.2187 57.6153 20.128V11.376H54.3193V8.592H57.6153L58.2233 2.32H61.0713V8.592H66.7193V11.376H61.0713V19.536C61.0713 20.944 61.3646 21.9467 61.9513 22.544C62.5486 23.1307 63.4766 23.424 64.7353 23.424ZM75.7598 26.288C73.8398 26.288 72.3304 25.7547 71.2318 24.688C70.1331 23.6213 69.5838 21.936 69.5838 19.632V8.592H73.0398V19.44C73.0398 20.816 73.3438 21.8027 73.9518 22.4C74.5704 22.9973 75.4451 23.296 76.5758 23.296C77.4184 23.296 78.2558 23.12 79.0878 22.768C79.9198 22.416 80.6291 21.904 81.2158 21.232V8.592H84.6718V26H81.8078L81.5678 24.144H81.3918C80.6344 24.848 79.7704 25.3813 78.7998 25.744C77.8398 26.1067 76.8264 26.288 75.7598 26.288ZM96.085 26.304C94.645 26.304 93.365 26 92.245 25.392C91.1357 24.784 90.2557 23.84 89.605 22.56C88.965 21.2693 88.645 19.6373 88.645 17.664C88.645 14.592 89.445 12.2667 91.045 10.688C92.6557 9.09867 95.0023 8.304 98.085 8.304C98.949 8.304 99.9677 8.38933 101.141 8.56V0.143999H104.597V26H101.685L101.461 24.08H101.269C100.661 24.7733 99.9143 25.3173 99.029 25.712C98.1437 26.1067 97.1623 26.304 96.085 26.304ZM96.949 23.424C97.7703 23.424 98.5437 23.2693 99.269 22.96C99.9943 22.6507 100.618 22.1653 101.141 21.504V11.36C100.266 11.136 99.2637 11.024 98.133 11.024C96.1063 11.024 94.597 11.536 93.605 12.56C92.6237 13.5733 92.133 15.1787 92.133 17.376C92.133 19.5307 92.549 21.0773 93.381 22.016C94.2237 22.9547 95.413 23.424 96.949 23.424ZM122.055 8.592H125.479L115.719 33.04H112.295L115.127 26H114.199L107.271 8.592H110.919L116.423 23.152L122.055 8.592Z" fill="#094C62"/>
</svg>
